<?xml version="1.0" encoding="utf-8"?>
<!-- Generator: Adobe Illustrator 24.1.1, SVG Export Plug-In . SVG Version: 6.00 Build 0)  -->
<svg version="1.1" id="Capa_1" xmlns="http://www.w3.org/2000/svg" xmlns:xlink="http://www.w3.org/1999/xlink" x="0px" y="0px"
	 viewBox="0 0 16 16" style="enable-background:new 0 0 16 16;" xml:space="preserve">
<style type="text/css">
	.st0{fill:#CDEAC0;}
</style>
<path class="st0" d="M13.35,0H2.65C1.18,0,0,1.18,0,2.65v10.7C0,14.82,1.18,16,2.65,16h10.7c1.47,0,2.65-1.18,2.65-2.65V2.65
	C16,1.18,14.82,0,13.35,0z M13.8,12.65l-1.23,1.15c-0.12,0.12-0.28,0.16-0.44,0.16c-0.16,0-0.32-0.04-0.43-0.16L7.44,9.51
	c-0.27,0.08-0.51,0.16-0.79,0.2c-0.28,0.04-0.52,0.08-0.8,0.08c-1.07,0-1.98-0.36-2.74-1.11C2.36,7.92,2,7.01,2,5.93
	C2,5.74,2,5.5,2.08,5.26c0.04-0.24,0.12-0.48,0.2-0.68C2.36,4.46,2.44,4.34,2.6,4.34c0.15,0,0.27,0.04,0.35,0.12l2.03,1.99
	l1.51-1.43L4.42,2.99C4.34,2.87,4.3,2.75,4.38,2.6c0.08-0.16,0.2-0.28,0.36-0.36C4.94,2.16,5.1,2.12,5.3,2.08
	c0.2-0.04,0.4-0.04,0.59-0.04c1.08,0,2.03,0.4,2.79,1.15c0.75,0.76,1.15,1.67,1.15,2.78c0,0.24-0.04,0.52-0.08,0.76
	C9.67,6.97,9.59,7.21,9.51,7.48l4.29,4.29c0.12,0.12,0.2,0.28,0.2,0.44C14,12.37,13.92,12.53,13.8,12.65z"/>
</svg>
